<svg width="25" height="25" viewBox="0 0 50 50" fill="none" xmlns="http://www.w3.org/2000/svg">
<path d="M24.9988 0.0823975C11.2342 0.0823975 0.0753174 11.241 0.0753174 25.0056C0.0753174 38.7708 11.2342 49.9285 24.9988 49.9285C38.7649 49.9285 49.9226 38.7708 49.9226 25.0056C49.9226 11.2419 38.7649 0.0835879 24.9985 0.0835879L24.9988 0.0823975ZM36.4286 36.0288C35.9822 36.761 35.0238 36.9931 34.2917 36.5437C28.4399 32.9693 21.0732 32.1598 12.3976 34.1419C11.5616 34.3324 10.7283 33.8086 10.5378 32.9723C10.3464 32.136 10.8682 31.3026 11.7063 31.1122C21.2003 28.9422 29.3441 29.877 35.9137 33.8919C36.6459 34.3413 36.878 35.2967 36.4286 36.0288ZM39.4792 29.2416C38.9167 30.1568 37.7203 30.4455 36.8066 29.883C30.1072 25.7642 19.895 24.5717 11.9709 26.977C10.9432 27.2875 9.85776 26.7083 9.54585 25.6824C9.23633 24.6547 9.81579 23.5714 10.8417 23.2589C19.8932 20.5125 31.1459 21.8428 38.8393 26.5705C39.753 27.133 40.0417 28.3294 39.4792 29.2419V29.2416ZM39.7411 22.175C31.7084 17.4038 18.4554 16.9651 10.786 19.2928C9.55448 19.6663 8.2521 18.9711 7.87889 17.7395C7.50567 16.5074 8.20032 15.2059 9.43276 14.8315C18.2366 12.1589 32.872 12.6753 42.1203 18.1654C43.2304 18.8229 43.5935 20.2535 42.9357 21.3598C42.281 22.4675 40.8464 22.8327 39.7423 22.175H39.7411Z" fill="#1ED760"/>
</svg>
