<svg width="92" height="50" viewBox="0 0 92 50" fill="none" xmlns="http://www.w3.org/2000/svg">
<path d="M91.8333 8.33333C91.8333 12.9167 88.0833 16.6667 83.5 16.6667C82.75 16.6667 82.0416 16.5833 81.375 16.375L66.5416 31.1667C66.75 31.8333 66.8333 32.5833 66.8333 33.3333C66.8333 37.9167 63.0833 41.6667 58.5 41.6667C53.9166 41.6667 50.1666 37.9167 50.1666 33.3333C50.1666 32.5833 50.25 31.8333 50.4583 31.1667L39.8333 20.5417C39.1666 20.75 38.4166 20.8333 37.6666 20.8333C36.9166 20.8333 36.1666 20.75 35.5 20.5417L16.5416 39.5417C16.75 40.2083 16.8333 40.9167 16.8333 41.6667C16.8333 46.25 13.0833 50 8.49996 50C3.91663 50 0.166626 46.25 0.166626 41.6667C0.166626 37.0833 3.91663 33.3333 8.49996 33.3333C9.24996 33.3333 9.95829 33.4167 10.625 33.625L29.625 14.6667C29.4166 14 29.3333 13.25 29.3333 12.5C29.3333 7.91667 33.0833 4.16667 37.6666 4.16667C42.25 4.16667 46 7.91667 46 12.5C46 13.25 45.9166 14 45.7083 14.6667L56.3333 25.2917C57 25.0833 57.75 25 58.5 25C59.25 25 60 25.0833 60.6666 25.2917L75.4583 10.4583C75.25 9.79167 75.1666 9.08333 75.1666 8.33333C75.1666 3.75 78.9166 0 83.5 0C88.0833 0 91.8333 3.75 91.8333 8.33333Z" fill="black" fill-opacity="0.54"/>
</svg>
